<?xml version="1.0" encoding="iso-8859-1"?>
<!-- Generator: Adobe Illustrator 19.0.0, SVG Export Plug-In . SVG Version: 6.00 Build 0)  -->
<svg version="1.1" id="Layer_1" xmlns="http://www.w3.org/2000/svg" xmlns:xlink="http://www.w3.org/1999/xlink" x="0px" y="0px"
	 viewBox="0 0 512 512" style="enable-background:new 0 0 512 512;" xml:space="preserve">
<polygon style="fill:#4B92B9;" points="451.918,117.497 60.082,117.497 7.837,258.667 504.163,258.667 "/>
<polygon style="fill:#79CAE8;" points="504.163,258.67 256,258.67 256,117.493 451.918,117.493 "/>
<rect x="7.837" y="258.664" style="fill:#4B92B9;" width="496.327" height="135.837"/>
<rect x="7.837" y="258.675" style="fill:#79CAE8;" width="248.163" height="135.837"/>
<g>
	<rect x="7.837" y="258.675" style="fill:#CAF9F4;" width="496.327" height="20.898"/>
	<rect x="7.837" y="373.614" style="fill:#CAF9F4;" width="496.327" height="20.898"/>
</g>
<rect x="39.184" y="313.522" style="fill:#4B92B9;" width="185.469" height="26.122"/>
<circle style="fill:#8EC766;" cx="431.543" cy="326.583" r="20.898"/>
<path d="M232.49,347.483v-41.796H31.347v41.796H232.49z M47.02,321.36h169.796v10.449H47.02V321.36z"/>
<path d="M431.543,297.85c-15.844,0-28.735,12.89-28.735,28.735c0,15.845,12.891,28.735,28.735,28.735s28.735-12.89,28.735-28.735
	C460.278,310.74,447.387,297.85,431.543,297.85z M431.543,339.646c-7.202,0-13.061-5.859-13.061-13.061s5.859-13.061,13.061-13.061
	s13.061,5.859,13.061,13.061S438.745,339.646,431.543,339.646z"/>
<path d="M457.375,109.66H54.625L0,257.263V402.34h512V257.263L457.375,109.66z M492.907,250.83h-229.07V125.333h182.625
	L492.907,250.83z M248.163,266.503v5.228H15.673v-5.228H248.163L248.163,266.503z M248.163,287.404v78.367H15.673v-78.367H248.163z
	 M263.837,287.404h232.49v78.367h-232.49V287.404z M263.837,271.731v-5.228h232.49v5.228H263.837z M65.538,125.333h182.625V250.83
	H19.093L65.538,125.333z M15.673,381.445h232.49v5.221H15.673V381.445z M263.837,386.667v-5.221h232.49v5.221H263.837z"/>
<g>
</g>
<g>
</g>
<g>
</g>
<g>
</g>
<g>
</g>
<g>
</g>
<g>
</g>
<g>
</g>
<g>
</g>
<g>
</g>
<g>
</g>
<g>
</g>
<g>
</g>
<g>
</g>
<g>
</g>
</svg>
