<?xml version="1.0" encoding="iso-8859-1"?>
<!-- Generator: Adobe Illustrator 19.0.0, SVG Export Plug-In . SVG Version: 6.00 Build 0)  -->
<svg version="1.1" id="Layer_1" xmlns="http://www.w3.org/2000/svg" xmlns:xlink="http://www.w3.org/1999/xlink" x="0px" y="0px"
	 viewBox="0 0 512 512" style="enable-background:new 0 0 512 512;" xml:space="preserve">
<g>
	<g>
		<path d="M0,117.551v276.898h512V117.551H0z M496.327,378.776H15.673V133.224h480.653V378.776z"/>
	</g>
</g>
<g>
	<g>
		<path d="M195.918,202.885v47.02h120.163v-47.02H195.918z M300.408,234.232h-88.816v-15.673h88.816V234.232z"/>
	</g>
</g>
<g>
	<g>
		<rect x="223.086" y="277.765" width="26.122" height="15.673"/>
	</g>
</g>
<g>
	<g>
		<rect x="262.792" y="277.765" width="26.122" height="15.673"/>
	</g>
</g>
<g>
	<g>
		<path d="M26.122,143.673v224.653h459.755V143.673H26.122z M211.592,159.347h88.816v15.673h-88.816V159.347z M300.408,352.653
			h-88.816V336.98h88.816V352.653z M470.204,352.653H316.082v-89.687h-15.673v58.34h-88.816v-58.34h-15.673v89.687H41.796V159.347
			h154.122v31.347h120.163v-31.347h154.122V352.653z"/>
	</g>
</g>
<g>
	<g>
		<path d="M144.98,229.878v-23.51H92.735v23.51h-23.51v52.245h23.51v23.51h52.245v-23.51h23.51v-52.245H144.98z M152.816,266.449
			h-23.51v23.51h-20.898v-23.51h-23.51v-20.898h23.51v-23.51h20.898v23.51h23.51V266.449z"/>
	</g>
</g>
<g>
	<g>
		<path d="M364.147,253.388c-14.404,0-26.122,11.719-26.122,26.122s11.719,26.122,26.122,26.122
			c14.404,0,26.122-11.719,26.122-26.122S378.551,253.388,364.147,253.388z M364.147,289.959c-5.762,0-10.449-4.687-10.449-10.449
			c0-5.762,4.687-10.449,10.449-10.449c5.762,0,10.449,4.687,10.449,10.449C374.596,285.272,369.909,289.959,364.147,289.959z"/>
	</g>
</g>
<g>
	<g>
		<path d="M426.841,253.388c-14.404,0-26.122,11.719-26.122,26.122s11.719,26.122,26.122,26.122s26.122-11.719,26.122-26.122
			S441.245,253.388,426.841,253.388z M426.841,289.959c-5.762,0-10.449-4.687-10.449-10.449c0-5.762,4.687-10.449,10.449-10.449
			s10.449,4.687,10.449,10.449C437.29,285.272,432.602,289.959,426.841,289.959z"/>
	</g>
</g>
<g>
</g>
<g>
</g>
<g>
</g>
<g>
</g>
<g>
</g>
<g>
</g>
<g>
</g>
<g>
</g>
<g>
</g>
<g>
</g>
<g>
</g>
<g>
</g>
<g>
</g>
<g>
</g>
<g>
</g>
</svg>
