<?xml version="1.0" encoding="iso-8859-1"?>
<!-- Generator: Adobe Illustrator 19.0.0, SVG Export Plug-In . SVG Version: 6.00 Build 0)  -->
<svg version="1.1" id="Layer_1" xmlns="http://www.w3.org/2000/svg" xmlns:xlink="http://www.w3.org/1999/xlink" x="0px" y="0px"
	 viewBox="0 0 512 512" style="enable-background:new 0 0 512 512;" xml:space="preserve">
<g>
	<g>
		<path d="M410.122,133.224H101.878C45.702,133.224,0,178.926,0,235.102v41.796c0,56.176,45.702,101.878,101.878,101.878h308.245
			c56.176,0,101.878-45.702,101.878-101.878v-41.796C512,178.926,466.298,133.224,410.122,133.224z M36.719,333.242
			c3.234-0.974,6.611-1.49,10.04-1.49c17.122,0,31.38,12.452,34.219,28.774C63.513,356.16,48.154,346.448,36.719,333.242z
			 M431.021,360.526c2.839-16.321,17.098-28.774,34.219-28.774c3.429,0,6.807,0.516,10.039,1.49
			C463.846,346.448,448.487,356.16,431.021,360.526z M496.327,276.898c0,15.694-4.237,30.41-11.595,43.099
			c-6.134-2.573-12.751-3.917-19.491-3.917c-26.609,0-48.455,20.726-50.278,46.879c-1.603,0.089-3.215,0.144-4.84,0.144H101.878
			c-1.625,0-3.237-0.054-4.84-0.144c-1.823-26.154-23.669-46.879-50.278-46.879c-6.74,0-13.356,1.345-19.49,3.917
			c-7.358-12.689-11.595-27.405-11.595-43.099v-41.796c0-47.533,38.672-86.204,86.204-86.204h308.245
			c47.532,0,86.204,38.671,86.204,86.204V276.898z"/>
	</g>
</g>
<g>
	<g>
		<path d="M101.878,159.347v182.857h308.245V159.347H101.878z M394.449,326.531H117.551V175.02h276.898V326.531z"/>
	</g>
</g>
<g>
	<g>
		<path d="M442.776,262.617c-12.963,0-23.51,10.546-23.51,23.51s10.547,23.51,23.51,23.51s23.51-10.546,23.51-23.51
			S455.739,262.617,442.776,262.617z M442.776,293.964c-4.322,0-7.837-3.515-7.837-7.837c0-4.322,3.515-7.837,7.837-7.837
			c4.322,0,7.837,3.515,7.837,7.837C450.612,290.449,447.097,293.964,442.776,293.964z"/>
	</g>
</g>
<g>
	<g>
		<path d="M69.224,262.617c-12.963,0-23.51,10.546-23.51,23.51s10.547,23.51,23.51,23.51s23.51-10.546,23.51-23.51
			S82.187,262.617,69.224,262.617z M69.224,293.964c-4.322,0-7.837-3.515-7.837-7.837c0-4.322,3.515-7.837,7.837-7.837
			c4.322,0,7.837,3.515,7.837,7.837C77.061,290.449,73.546,293.964,69.224,293.964z"/>
	</g>
</g>
<g>
	<g>
		<polygon points="66.612,218.036 66.612,204.974 50.939,204.974 50.939,218.036 37.878,218.036 37.878,233.709 50.939,233.709 
			50.939,246.77 66.612,246.77 66.612,233.709 79.673,233.709 79.673,218.036 		"/>
	</g>
</g>
<g>
	<g>
		<circle cx="453.224" cy="212.814" r="7.837"/>
	</g>
</g>
<g>
	<g>
		<circle cx="453.224" cy="244.161" r="7.837"/>
	</g>
</g>
<g>
	<g>
		<circle cx="468.898" cy="228.488" r="7.837"/>
	</g>
</g>
<g>
	<g>
		<circle cx="437.551" cy="228.488" r="7.837"/>
	</g>
</g>
<g>
</g>
<g>
</g>
<g>
</g>
<g>
</g>
<g>
</g>
<g>
</g>
<g>
</g>
<g>
</g>
<g>
</g>
<g>
</g>
<g>
</g>
<g>
</g>
<g>
</g>
<g>
</g>
<g>
</g>
</svg>
