<svg id="Gameboy_Pocket" data-name="Gameboy Pocket" xmlns="http://www.w3.org/2000/svg" viewBox="0 0 95.33 152"><ellipse cx="52.39" cy="143.1" rx="31.94" ry="4.06" style="fill:#d7e2ff"/><path d="M41.05,131.43s-1,7.89-5.44,7.89a10.82,10.82,0,0,0-1.07,4.33h5.35s4.2-4.17,2.87-13.5Z" style="fill:#381706"/><path d="M29.35,116.26s0,15.88,10.7,17.59c3.47.56,5.19-5.84,5.19-5.84l-2.6-8.56Z" style="fill:#f07837"/><path d="M20.81,101.08l2-1.75,7.54-6.55,3.41-3-2.51-6.26-.19-.47a23.55,23.55,0,0,0-6.43,6C21,94,19.68,99.44,20.81,101.08Z" style="fill:#ff942a"/><path d="M20.73,99.58l2.11-.25,7-.85.56-5.7.9-9.22-.19-.47a23.55,23.55,0,0,0-6.43,6,3.15,3.15,0,0,1,1.08,1.09C26,91,21,94.58,20.73,99.58Z" style="fill:#f07837"/><path d="M59.2,114.51a24.9,24.9,0,0,1-2.7,3.4c-3.13,3.37-8.87,7.91-16.45,7a18.91,18.91,0,0,1-3-.61,15.51,15.51,0,0,1-7.29-4.61c-3.67-4.15-5-9.85-5.05-14.08v-.26a49.52,49.52,0,0,1,.46-7.63c.75-4.93,2.76-11,8.18-20.44.5-.87,1-1.77,1.58-2.71L51.57,73l1.12-.1s.45,1.42,1,3.75a60.68,60.68,0,0,1,1.29,9.68,45.48,45.48,0,0,1-.09,5.93c-.07.84-.09,1.66-.09,2.48a32.09,32.09,0,0,0,.46,5.18,43.66,43.66,0,0,0,1,4.32C57.39,108.76,59,112.34,59.2,114.51Z" style="fill:#ff942a"/><path d="M54.85,92.29c-.07.84-.09,1.66-.09,2.48-.66-3.29-1.63-9.41-1.63-9.41l1.81,1A45.48,45.48,0,0,1,54.85,92.29Z" style="fill:#f07837"/><path d="M53.65,76.68c-3.66,2.43-8,9-10.58,9-3.43,0-6-5.37-9.7-8.38.5-.87,1-1.77,1.58-2.71L51.57,73l1.12-.1S53.14,74.35,53.65,76.68Z" style="fill:#f07837"/><path d="M50.55,98.55a30.34,30.34,0,0,1-2.75,7.2c-.12.23-.26.46-.39.69a18.92,18.92,0,0,1-2,2.77l-4.81,11a7.37,7.37,0,0,1-4,1.22,13.29,13.29,0,0,1-6.91-1.77c-3.75-4.24-5.07-10.1-5.05-14.34,0-6.94.21-13.32,8.64-28.07.5-.87,1-1.77,1.58-2.71L51.57,73c.14,1.18.31,2.88.44,4.94C52.36,83.44,52.38,91.41,50.55,98.55Z" style="fill:#ffecdb"/><path d="M54.41,106.61a19.37,19.37,0,0,0-2.12-.5,15.69,15.69,0,0,0,3.88-1.84,43.66,43.66,0,0,1-1-4.32c-.93-.31-2.78-.9-4.67-1.4a30.34,30.34,0,0,1-2.75,7.2c-5.91.17-13.28,3.28-10.73,18.54a17.85,17.85,0,0,0,3,.61c7.58.92,13.32-3.62,16.46-7Z" style="fill:#f07837"/><path d="M25.19,97.71l7.69-10.43a12.33,12.33,0,0,1,.6,7.49c-1.21,4.12-3.65,9.19-8.75,10.83Z" style="fill:#f2d0ad"/><path d="M52,78c-3.25,2.91-6.75,7.68-8.94,7.68-3.43,0-6-5.37-9.7-8.38.5-.87,1-1.77,1.58-2.71L51.57,73C51.71,74.21,51.88,75.91,52,78Z" style="fill:#f2d0ad"/><path d="M47.8,105.75a30.34,30.34,0,0,0,2.75-7.2,21.75,21.75,0,0,0-4.65-.84c-3.61,0-4.43,3-3.94,4.44a6.57,6.57,0,0,0,3.75,3.79c-5,.8-10.08,4.28-9,15.51a7.41,7.41,0,0,0,3.94-1.23l4.81-11a20.24,20.24,0,0,0,1.95-2.77c.1-.15.18-.3.27-.46s.09-.15.14-.23Z" style="fill:#f2d0ad"/><path d="M32.19,85.84c-2.36-.9-1.47,1.32-7.35,7.7-.18.2-.41.35-.6.53-3.52,3.22-4.61,7-2.46,8.17,1.12.63,2.95,1.31,6.29-1.6C30.59,98.45,35.92,87.27,32.19,85.84Z" style="fill:#381706"/><path d="M88.73,98.87A36.45,36.45,0,0,1,85,107.22s-4.59-10.85-7-11-3.52,8.72-3.52,8.72c-1.18-1.77-3.46-5.46-4.43-7,.13-1.44.2-3,.2-4.78,0-24.87,14.75-4.51,16.92.81A38.25,38.25,0,0,1,88.73,98.87Z" style="fill:#ffecdb"/><path d="M88.25,122.05c-3.57,12.43-14.13,15.18-20.49,14a15.45,15.45,0,0,1-8.53-4.45c-6.25-6.38-5.93-16.89-5.93-16.89l3.05-3.87a9.84,9.84,0,0,0,5.46.84l.17,0c3.36-.61,7.14-3.64,8-13.77,1,1.58,3.25,5.27,4.43,7,0,0,1.07-8.87,3.51-8.72s7,11,7,11a36.45,36.45,0,0,0,3.74-8.35,41,41,0,0,1,1,5.78A44.73,44.73,0,0,1,88.25,122.05Z" style="fill:#ff942a"/><path d="M88.25,122.05c-3.57,12.43-14.13,15.18-20.49,14a15.45,15.45,0,0,1-8.53-4.45c-6.25-6.38-5.93-16.89-5.93-16.89l3.05-3.87a9.84,9.84,0,0,0,5.46.84l.17,0c.89,2.48,1.36,6.43-.09,12.44a16.16,16.16,0,0,0,5.87,2.29c6.36,1.18,16.92-1.57,20.49-14a45.36,45.36,0,0,0,1.53-7.74h0A44.73,44.73,0,0,1,88.25,122.05Z" style="fill:#f07837"/><path d="M58,130.15s2.46,8.3-7.73,13.5H44.43s.51-3.46,1.83-4.18,3.26.21,3.26.21,6.53-3.67,7-8.46Z" style="fill:#381706"/><path d="M54.56,125.84c-.31,3.64,3.41,4.31,3.41,4.31s-.19,1.93-3,3.31a5.41,5.41,0,0,1-2.1.39c-4.62.1-13.48-3-14-11.8-.94-16.36,15.59-15.44,15.59-15.44,7,6,4.79,11,4.79,11C55.91,121.34,54.71,124,54.56,125.84Z" style="fill:#ff942a"/><path d="M58,130.15s-.19,1.93-3,3.31a5.41,5.41,0,0,1-2.1.39c-4.35-.12-11.92-3.18-12.55-11.47,4.44,6.69,11.26,4.78,14.29,3.46C54.25,129.48,58,130.15,58,130.15Z" style="fill:#f07837"/><path d="M57.17,102.77a4.54,4.54,0,0,0-2-5.51c2.46-2-2.49-12.82-2.49-12.82l.51-6.86C59.68,84.2,64.72,98.7,57.17,102.77Z" style="fill:#ff942a"/><path d="M80,68.18S53.66,69.55,43,82.43c0,0-16.28-17.21-39.52-15.87,0,0,18.83-20,39.9-5.51C43.38,61.05,59.36,48.53,80,68.18Z" style="fill:#ffecdb"/><path d="M34.2,20C22.27,23.22,14.46,29.32,9.34,36,6,25.3,8.46,5.32,10.73,4,13.51,2.29,28.37,7.64,34.2,20Z" style="fill:#ff942a"/><path d="M14.5,9c-2.65,1-4.39,23.47-.85,25s13.41-5.47,13.93-8.26-5.29-3.95-5.29-3.95l5.44-1.27L21,16l4.39-.62S17.64,7.82,14.5,9Z" style="fill:#f07837"/><path d="M77.13,38.42a44.5,44.5,0,0,0-22.6-17.35c9.09-12.9,28-13.16,30.27-10.39C86.31,12.54,82.82,28.74,77.13,38.42Z" style="fill:#ff942a"/><path d="M79.54,14.15C81.69,16,75.71,37.72,71.84,38s-10.76-9.7-10.3-12.5,6.32-1.92,6.32-1.92l-4.69-3,7.94-2-3.92-2.08S77,12,79.54,14.15Z" style="fill:#f07837"/><path d="M77.13,38.42a17.81,17.81,0,0,1-5.49,6.29C67.76,47,60.45,43.9,54.72,37.94,52.17,35.28,50,28.78,52.27,25a25.46,25.46,0,0,1,2.26-3.94A44.5,44.5,0,0,1,77.13,38.42Z" style="fill:#f07837"/><path d="M29.77,39.81c-7.41,3.67-15.35,4.14-18.21.63A13.5,13.5,0,0,1,9.34,36C14.46,29.32,22.27,23.22,34.2,20a24.56,24.56,0,0,1,2.26,8.46C37.3,32.79,33.07,38.17,29.77,39.81Z" style="fill:#f07837"/><path d="M80,68.18c-20.62-19.65-36.6-7.13-36.6-7.13-21.07-14.53-39.9,5.51-39.9,5.51s.8-36.21,34.74-44.85a26.5,26.5,0,0,1,8.55-6.22l-3.85,5.87a22.64,22.64,0,0,1,7.28-3.15l-1.34,4S76.67,25.88,80,68.18Z" style="fill:#ff942a"/><path d="M41,58.46l4.79.17a1,1,0,0,1,.61,1.65l-2.47,2.3a.94.94,0,0,1-1.34,0l-2.32-2.48A1,1,0,0,1,41,58.46Z" style="fill:#381706"/><path d="M37.58,67.84c3-.31,3.27-2.55,4-2.47s1.83,1.95,1.83,1.95.88-2.18,2-2.07c.86.08,1.37,3.18,3.7,2.91-2.2.29-3.61,4.74-5.93,4.79C41.27,73,39.71,68.06,37.58,67.84Z" style="fill:#f04a4a"/><path d="M42,69a4.52,4.52,0,0,1,3,0S44.28,69.73,42,69Z" style="fill:#b83838"/><path d="M39,55.5S37.75,45.34,27.85,43c-9.49-2.23-10.32,8.16-10.32,8.16S30.55,46.38,39,55.5Z" style="fill:#f07837"/><path d="M36.08,37.4c-.1.72-1.82,1.11-3.85.87s-3.6-1-3.51-1.72,1.81-1.11,3.85-.88S36.17,36.68,36.08,37.4Z" style="fill:#381706"/><path d="M37.89,54.19a13.81,13.81,0,0,0-1.74-1.86,18.06,18.06,0,0,0-2-1.61,18.47,18.47,0,0,0-9.53-3.34,21,21,0,0,0-5.07.35l-.31-1.81a23.08,23.08,0,0,1,5.51-.16,19.76,19.76,0,0,1,10.12,4,19.43,19.43,0,0,1,2.06,1.79,15.82,15.82,0,0,1,1.8,2.09Z" style="fill:#381706"/><path d="M48.3,55.43S49.55,45.28,59.46,43c9.49-2.23,10.32,8.17,10.32,8.17S56.75,46.32,48.3,55.43Z" style="fill:#f07837"/><path d="M51.23,37.33c.09.72,1.82,1.11,3.85.88s3.6-1,3.51-1.73-1.82-1.11-3.85-.87S51.14,36.61,51.23,37.33Z" style="fill:#381706"/><path d="M48.58,53.54a15.82,15.82,0,0,1,1.8-2.09,19.58,19.58,0,0,1,2.06-1.79,20,20,0,0,1,10.12-4,23.1,23.1,0,0,1,5.51.16l-.31,1.81a21.57,21.57,0,0,0-5.07-.34,18.42,18.42,0,0,0-5,1,18.85,18.85,0,0,0-4.55,2.34,19.41,19.41,0,0,0-2,1.61,15.83,15.83,0,0,0-1.73,1.86Z" style="fill:#381706"/><path d="M82.76,46.47S83,34,87.61,37.53c2.36,1.86,0,4.16,0,4.16s3.21-2,4.33,1S89.42,47.5,82.76,46.47Z" style="fill:#f04a4a"/><path d="M57.17,102.77a7.43,7.43,0,0,1-2,.73c-8.25,1.73-11.42-10-11.42-10s4.18-.22,3-5.23c3.1,3.26,4.39,11,8.25,9.22a1.17,1.17,0,0,0,.3-.19A4.54,4.54,0,0,1,57.17,102.77Z" style="fill:#381706"/><path d="M43.71,93.46a3.44,3.44,0,0,1-3.05-3.82c.17-1.87,1.31-3.21,3.77-2.75a3.26,3.26,0,0,1,1.11.42,4.66,4.66,0,0,1,1.13.92C48.78,93.31,43.71,93.46,43.71,93.46Z" style="fill:#63290c"/><path d="M41,89.68a2.67,2.67,0,0,0,2.87,2.1,3,3,0,0,0,2.75-2.41s.65,3.79-2.81,3.79C40.77,93.16,41,89.68,41,89.68Z" style="fill:#381706"/></svg>