<svg xmlns="http://www.w3.org/2000/svg" xmlns:xlink="http://www.w3.org/1999/xlink" viewBox="0 0 95.33 152"><defs><clipPath id="clip-path"><path d="M59,48.34s4.29-11.91,9.67-10.47c6.5,1.75,4.82,14.69,4.82,14.69A18.52,18.52,0,0,0,59,48.34Z" style="fill:#fff"/></clipPath><clipPath id="clip-path-2"><path d="M52.55,46.11s4.24-12.18-.88-13.77c-6.19-1.9-13.14,9.79-13.14,9.79A17.38,17.38,0,0,1,52.55,46.11Z" style="fill:#fff"/></clipPath><clipPath id="clip-path-3"><path d="M61.31,55.87S49.5,62.46,46.53,49.6c0,0-1.89,15.31,2.5,16.82S61.31,55.87,61.31,55.87Z" style="fill:#381706"/></clipPath></defs><g style="isolation:isolate"><g id="Gameboy_Pocket" data-name="Gameboy Pocket"><path d="M71.75,138.68c0,2-13,3.6-29,3.6s-29-1.61-29-3.6,13-3.59,29-3.59S71.75,136.7,71.75,138.68Z" style="fill:#d7e2ff"/><path d="M72,107l-.42.83a31.25,31.25,0,0,0,7.44-2,32.25,32.25,0,0,0,2.36-3.67,28.66,28.66,0,0,0,2.54-9.09c.29-2.78,0-5.33-1.38-6.42C79,84,70.35,90.09,69.35,90.77c-.52,1.47-3,5.33-3.5,7,0,0,8-2.08,9.15-.4C76,98.77,73.1,104.8,72,107Z" style="fill:#ffecdb"/><path d="M38.1,107.84c.59,2.56,2.87,5.18,6,7.25a24.91,24.91,0,0,0,5.11,2.56,21.13,21.13,0,0,0,12.09,1,15.65,15.65,0,0,0,2.31-.77,37.15,37.15,0,0,0,15.37-12,31.25,31.25,0,0,1-7.44,2L72,107c1.12-2.21,4-8.24,3-9.6-1.2-1.68-9.15.4-9.15.4.53-1.71,3-5.57,3.5-7a34.35,34.35,0,0,1-7.28,1.33c-5.39.37-8.07-1-8.07-1l-4.15.06s-10.23,8.47-11.67,14.48A4.77,4.77,0,0,0,38.1,107.84Z" style="fill:#ff942a"/><path d="M38.18,105.63c1.44-6,11.67-14.48,11.67-14.48L54,91.09s1.53,1,6.55,1.07c1.5,4.43-.54,9.07-1.95,11.44.48,2.07,2,4.46,6.33,4.73A14.27,14.27,0,0,0,72,107c6.14-2.84,10-9.54,11.92-13.93a28.66,28.66,0,0,1-2.54,9.09A32.25,32.25,0,0,1,79,105.84,36.78,36.78,0,0,1,67,116.2a17,17,0,0,1-5.31,2.3l-.36.11a20.82,20.82,0,0,1-11.55-.77l-.54-.19a24.91,24.91,0,0,1-5.11-2.56l.09-.09C41,112.94,37.63,109.85,38.18,105.63Z" style="fill:#f2dbc9;mix-blend-mode:multiply"/><path d="M42.13,123.25S40,132.4,49,138.68h5.14s-.45-4.19-1.63-5.05-2.88.25-2.88.25-5.78-4.44-6.23-10.23Z" style="fill:#381706"/><path d="M42.13,123.25l1.44,1.63c2.49.92,8.84.71,12.61-3a9.86,9.86,0,0,0,2.91-6.5c1.22-15-13.8-14.94-13.8-14.94-6.23,5.77-6.39,7.71-6.39,7.71,6.83,4.17,7.41,7.51,7.55,9.31A4.88,4.88,0,0,1,45,121.14,10.65,10.65,0,0,1,42.13,123.25Z" style="fill:#ff942a"/><path d="M42.13,123.25l1.44,1.63c2.49.92,8.84.71,12.61-3-6.42,2.41-10,.31-11.22-.77A10.65,10.65,0,0,1,42.13,123.25Z" style="fill:#f2dbc9;mix-blend-mode:multiply"/><path d="M15.27,101.1l1.73.22s0-6.8,4.06-8.41c1.54-.61,5.08-2,10.83,6.76.54.81,1.09,1.71,1.66,2.7a77.27,77.27,0,0,1,.5-16.49s-4.84-9.48-14-5.9c-3.08,1.2-4.77,3.92-5.59,7A25.2,25.2,0,0,0,15.27,101.1Z" style="fill:#ff942a"/><path d="M15.27,101.1l1.73.22s0-6.8,4.06-8.41c1.54-.61,5.08-2,10.83,6.76C25.06,83,19.81,93,16.26,92c-1.19-.35-1.63-2.89-1.79-4.94A25.2,25.2,0,0,0,15.27,101.1Z" style="fill:#f2dbc9;mix-blend-mode:multiply"/><path d="M23.47,62.38c.14.33.3.66.47,1l4.43-3.52c-.31-.48-.6-1-.88-1.49-5.14-9.48-6.43-14.62-8.2-14.3S19.94,54.43,23.47,62.38Z" style="fill:#381706"/><path d="M23.94,63.37A27.24,27.24,0,0,0,34.16,73.79a30.73,30.73,0,0,0,6.13,2.87l1.61-3.35s-1-.63-2.58-1.81A46.64,46.64,0,0,1,28.37,59.85Z" style="fill:#ff942a"/><path d="M34.16,73.79a30.73,30.73,0,0,0,6.13,2.87l1.61-3.35s-1-.63-2.58-1.81A5,5,0,0,1,34.16,73.79Z" style="fill:#f2dbc9;mix-blend-mode:multiply"/><path d="M74.85,81.89c-.33.13-.67.26-1,.38l-.74-5.6c.56-.13,1.11-.29,1.67-.46C85,73,89.54,70.15,90.58,71.61S82.92,78.62,74.85,81.89Z" style="fill:#381706"/><path d="M52.83,80.48A31.44,31.44,0,0,0,61.11,83a26.28,26.28,0,0,0,12.72-.77l-.75-5.6a45.39,45.39,0,0,1-13.82,1A40.91,40.91,0,0,1,54,77Z" style="fill:#ff942a"/><path d="M52.83,80.48A31.44,31.44,0,0,0,61.11,83a5.63,5.63,0,0,1-1.85-5.39A40.91,40.91,0,0,1,54,77Z" style="fill:#f2dbc9;mix-blend-mode:multiply"/><path d="M37.17,107.09c7.09,6.19,17.47,3.25,21.23-10,2.25-7.91-.13-16.34-2.41-21.85a44.35,44.35,0,0,0-3-6.11l-7.41-1.45a34.23,34.23,0,0,0-3.89,3,30.21,30.21,0,0,0-8.23,11.41C29.77,92.05,31.09,101.79,37.17,107.09Z" style="fill:#ff942a"/><path d="M52.1,68.89s7,12.19,4.39,23.36c-2.36,9.94-11.55,11.86-17.09,8.35-4.8-3-6.29-12.19-3-20.84,2.39-6.29,9.75-12.08,9.75-12.08Z" style="fill:#ffecdb"/><path d="M41.66,70.73c2.36,4.37,2.28,9.16,4.39,9.73s6.71-3.64,9.94-5.22a44.35,44.35,0,0,0-3-6.11l-7.41-1.45A34.23,34.23,0,0,0,41.66,70.73Z" style="fill:#f2dbc9;mix-blend-mode:multiply"/><path d="M37.17,107.09c7.09,6.19,16.61,3.5,20.37-9.76a36.58,36.58,0,0,0,1.17-13.14,19.84,19.84,0,0,1-.57,3.1c-2.67,9.94-13.06,11.86-19.32,8.35-4-2.21-5.92-7.66-5.26-13.81-.05.1-.09.21-.13.31C29.77,92.05,31.09,101.79,37.17,107.09Z" style="fill:#f2dbc9;mix-blend-mode:multiply"/><path d="M34.63,37.75a4,4,0,0,0,1.4,2c2.35,2,7.3,3.68,12.51,2.87,3.07-.48,8.17-3.68,9.08-7.29a33.85,33.85,0,0,0,1-3.71c.08-.31.15-.62.2-.94a15.09,15.09,0,0,0,.07-4.5C57.74,17.29,49.49,9.17,47,9.75,45.35,10.14,36,21.17,34.49,31.81A17.62,17.62,0,0,0,34.63,37.75Z" style="fill:#ff942a"/><path d="M46.7,13.93c-2.35.15-10.35,18.14-8.24,20.24s13.31,0,14.7-2-3.83-5.47-3.83-5.47l5.51.41-4.43-5.34,3.53.58S49.49,13.76,46.7,13.93Z" style="fill:#f07837"/><path d="M34.63,37.75a4,4,0,0,0,1.4,2l22.8-9.07a15.09,15.09,0,0,0,.07-4.5,40.63,40.63,0,0,0-4.85-.1,41.15,41.15,0,0,0-15.37,3.45,32.2,32.2,0,0,0-4.19,2.25A17.62,17.62,0,0,0,34.63,37.75Z" style="fill:#f07837"/><path d="M81.82,51a4,4,0,0,1-2.33.79c-3.1.22-8.06-1.4-11.75-5.16-2.18-2.21-4.36-7.83-2.94-11.27a35.59,35.59,0,0,1,1.4-3.58c.13-.29.26-.59.4-.87a14.93,14.93,0,0,1,2.64-3.65c6.25-6.47,17.71-8.06,19.34-6.12,1.11,1.31,2.08,15.77-3.1,25.17A17.48,17.48,0,0,1,81.82,51Z" style="fill:#ff942a"/><path d="M86.35,24.7c1.8,1.52-2.52,20.73-5.47,21.16s-10.7-7.92-10.57-10.4,6.33-2.11,6.33-2.11l-4.66-3,6.74-1.64-3.18-1.63S84.21,22.9,86.35,24.7Z" style="fill:#f07837"/><path d="M81.82,51a4,4,0,0,1-2.33.79L66.6,30.93a14.93,14.93,0,0,1,2.64-3.65,38.32,38.32,0,0,1,3.94,2.81A41.23,41.23,0,0,1,83.46,42a31.46,31.46,0,0,1,2,4.3A17.48,17.48,0,0,1,81.82,51Z" style="fill:#f07837"/><path d="M24.52,48.29s17.9,15.14,21.81,28.37c0,0,18.8-9,36.39-4.4,0,0-7.15-29.26-27.83-25.07C54.89,47.19,43.92,35.26,24.52,48.29Z" style="fill:#ffecdb"/><path d="M24.52,48.29C50.19,39,54.35,50,54.35,50c16-5.47,28.37,22.25,28.37,22.25s6-23.35-12.75-40.45a21.77,21.77,0,0,0-4.47-7.5l1,5.7A18.8,18.8,0,0,0,62,25.27l-.29,3.49S38.37,24.31,24.52,48.29Z" style="fill:#ff942a"/><path d="M57.82,48.68S62.18,36.13,68.3,36.11c8.2,0,7.88,19.36,7.88,19.36S68.74,45.11,57.82,48.68Z" style="fill:#f07837"/><path d="M57,48.49l-3.69-1.41a.78.78,0,0,0-1,1l1.13,2.55a.78.78,0,0,0,1,.4L57,49.94A.79.79,0,0,0,57,48.49Z" style="fill:#381706"/><path d="M59,48.34s4.29-11.91,9.67-10.47c6.5,1.75,4.82,14.69,4.82,14.69A18.52,18.52,0,0,0,59,48.34Z" style="fill:#fff"/><g style="clip-path:url(#clip-path)"><path d="M61.93,45.61c-.81,3.89.8,7.51,3.6,8.09s5.72-2.09,6.53-6-.79-7.51-3.59-8.1S62.74,41.72,61.93,45.61Z" style="fill:#381706"/></g><path d="M73.52,52.82a.31.31,0,0,1-.18-.07A18.38,18.38,0,0,0,59.06,48.6a.26.26,0,0,1-.28-.35c.18-.5,4.44-12.12,10-10.63,6.64,1.79,5.08,14.43,5,15a.25.25,0,0,1-.17.21ZM61.44,47.93A19.14,19.14,0,0,1,73.32,52c.21-2.36.82-12.44-4.68-13.91C64.08,36.9,60.22,46,59.42,48A20.22,20.22,0,0,1,61.44,47.93Z" style="fill:#381706"/><path d="M68.91,29.93c-.27.57.78,1.62,2.34,2.36s3,.87,3.3.31-.78-1.62-2.34-2.35S69.18,29.37,68.91,29.93Z" style="fill:#381706"/><path d="M64.54,42.48c-.28,1.35.31,2.61,1.32,2.83s2.07-.72,2.35-2.06-.31-2.62-1.33-2.83S64.82,41.13,64.54,42.48Z" style="fill:#fff"/><path d="M53.27,47s4.6-12.75-.16-16C46.73,26.8,34.6,43.18,34.6,43.18S47,38.37,53.27,47Z" style="fill:#f07837"/><path d="M52.55,46.11s4.24-12.18-.88-13.77c-6.19-1.9-13.14,9.79-13.14,9.79A17.38,17.38,0,0,1,52.55,46.11Z" style="fill:#fff"/><g style="clip-path:url(#clip-path-2)"><path d="M52.41,42c-1.52,3.82-4.89,6.32-7.52,5.59s-3.53-4.43-2-8.25S47.77,33,50.4,33.78,53.93,38.2,52.41,42Z" style="fill:#381706"/></g><path d="M52.55,46.37a.24.24,0,0,1-.18-.07,17.29,17.29,0,0,0-13.79-3.92.26.26,0,0,1-.26-.1.28.28,0,0,1,0-.29c.29-.48,7.12-11.84,13.43-9.89a3.3,3.3,0,0,1,2,1.77c1.94,3.83-.87,12-1,12.33a.24.24,0,0,1-.18.16ZM41.11,41.66a17.45,17.45,0,0,1,11.31,4c.53-1.64,2.51-8.37.9-11.56a2.82,2.82,0,0,0-1.73-1.51c-5.22-1.61-11.16,7-12.54,9.19A18.5,18.5,0,0,1,41.11,41.66Z" style="fill:#381706"/><path d="M56.57,25.6c-.15.61-1.64.95-3.32.76s-2.93-.85-2.78-1.45,1.64-.95,3.33-.76S56.72,25,56.57,25.6Z" style="fill:#381706"/><path d="M49.07,37.78c-.64,1.28-1.91,2-2.84,1.68s-1.15-1.66-.51-2.94,1.91-2,2.84-1.67S49.71,36.51,49.07,37.78Z" style="fill:#fff"/><path d="M61.31,55.87S49.5,62.46,46.53,49.6c0,0-1.89,15.31,2.5,16.82S61.31,55.87,61.31,55.87Z" style="fill:#381706"/><g style="clip-path:url(#clip-path-3)"><path d="M52.45,66.93s-.06-1.83-.46-2-1.07.43-1.07.43a19.29,19.29,0,0,0-2.57-1s-.29-1.15-.66-1.14c-.53,0-1.83,1.46-1.83,1.46S47.23,70.39,52.45,66.93Z" style="fill:#fff"/><path d="M58.42,56.49s-1.87,3.74-2.05.91S58.42,56.49,58.42,56.49Z" style="fill:#fff"/><path d="M47.48,52.28s-.73,4.12,1.1,1.95S47.48,52.28,47.48,52.28Z" style="fill:#fff"/></g><path d="M49.87,66.82a2.92,2.92,0,0,1-.93-.15c-4.53-1.56-2.75-16.46-2.67-17.1a.28.28,0,0,1,.25-.23.27.27,0,0,1,.26.21c.85,3.65,2.49,6,4.9,7.11,4.23,1.87,9.45-1,9.51-1a.27.27,0,0,1,.31,0,.26.26,0,0,1,0,.32C61.23,56.48,54.54,66.82,49.87,66.82ZM46.65,51c-.34,3.78-.92,14,2.46,15.15,3.61,1.24,9.63-7,11.45-9.65-1.72.76-5.65,2.13-9.09.6C49.23,56.14,47.61,54.09,46.65,51Z" style="fill:#381706"/><path d="M45.71,49.82l-.29-.43a1.08,1.08,0,0,1,1.27,0l-.33.41.17-.21-.16.21A.54.54,0,0,0,45.71,49.82Z" style="fill:#381706"/><path d="M62,56.59a.52.52,0,0,0-.63-.46l-.08-.52a1,1,0,0,1,1.22.91Z" style="fill:#381706"/><path d="M17,101.31c0,.57-.57,1.09-1.08.85C5.59,97.21,4.27,86.7,4.75,85.37c1.32-.73,4.23-1.44,4.41,0,.54,4.2,1.67,12.56,7.84,15.94Z" style="fill:#381706"/></g></g></svg>